# xmcd
#
# Track frame offsets: 
#        150
#        15582
#        28518
#
# Disc length: 710 seconds
#
# Revision: 1
# Processed by: cddbd v1.5.2PL0 Copyright (c) Steve Scherf et al.
# Submitted via: ExactAudioCopyFreeDBPlugin 1.0
#
DISCID=1602c403
DTITLE=Paul Carrack - Where Did I Go Wrong?
DYEAR=2002
DGENRE=Pop
TTITLE0=Where Did I Go Wrong? (Radio Edit )
TTITLE1=I Wish It Would Rain
TTITLE2=Sunny ( Live )
EXTD=
EXTT0=
EXTT1=
EXTT2=
PLAYORDER=
